<?xml version='1.0' encoding='UTF-8' standalone='no'?>
<!-- Created with Fritzing (http://www.fritzing.org/) -->
<svg xmlns="http://www.w3.org/2000/svg" viewBox="0 0 382.677 255.118"  xmlns:svg="http://www.w3.org/2000/svg" y="0in" height="3.54331in" baseProfile="tiny" x="0in" version="1.2" width="5.31496in">
 <g transform="matrix(-1, 0, 0, 1, 382.677, 0)">
  <g partID="856598350">
   <g  id="board">
    <rect  fill="none" stroke="black" stroke-width="0.5" height="254.542" y="0.288" id="boardoutline" fill-opacity="0.5" x="0.288" width="382.102"/>
   </g>
  </g>
  <g partID="856889050">
   <g transform="translate(138.79,170.817)">
    <g  id="copper0">
     <circle  cx="3.01733" fill="black" cy="3.01733" stroke-width="1.57039" stroke="black" id="connector0pin" r="0.992124"/>
    </g>
   </g>
  </g>
  <g partID="856598440">
   <g transform="translate(215.88,74.6974)">
    <g transform="matrix(0,1,-1,0,0,0)">
     <g transform="matrix(1, 0, 0, 1, -19.8669, 0.0258983)">
      <g id="copper0">
       <g gorn="0.5.0.0.0.0">
        <g gorn="0.5.0.0.0.0.0" stroke-width="0" id="g57">
         <circle gorn="0.5.0.0.0.0.0.0" cx="122.4" fill="black" cy="34.2" stroke="black" stroke-width="1.944" id="connector3pin" connectorname="CTS_5V" r="2.052"/>
         <circle gorn="0.5.0.0.0.0.0.1" cx="122.4" fill="black" cy="27" stroke="black" stroke-width="1.944" id="connector2pin" connectorname="VCC" r="2.052"/>
         <circle gorn="0.5.0.0.0.0.0.2" cx="122.4" fill="black" cy="19.8" stroke="black" stroke-width="1.944" id="connector1pin" connectorname="TX_5V" r="2.052"/>
         <circle gorn="0.5.0.0.0.0.0.3" cx="122.4" fill="black" cy="12.6" stroke="black" stroke-width="1.944" id="connector0pin" connectorname="RX_5V" r="2.052"/>
        </g>
       </g>
      </g>
     </g>
    </g>
   </g>
  </g>
  <g partID="856598450">
   <g transform="translate(163.654,15.2304)">
    <g  id="copper0">
     <circle  cx="3.6" fill="black" cy="10.8" stroke="black" stroke-width="1.944" id="connector16pad" r="1.908"/>
     <rect  fill="black" y="8.892" stroke="black" stroke-width="1.944" height="3.816" x="1.692" width="3.814"/>
     <circle  cx="3.6" fill="black" cy="18" stroke="black" stroke-width="1.944" id="connector17pad" r="1.908"/>
     <circle  cx="3.6" fill="black" cy="25.2" stroke="black" stroke-width="1.944" id="connector18pad" r="1.908"/>
     <circle  cx="3.6" fill="black" cy="32.4" stroke="black" stroke-width="1.944" id="connector19pad" r="1.908"/>
     <circle  cx="3.6" fill="black" cy="39.6" stroke="black" stroke-width="1.944" id="connector20pad" r="1.908"/>
     <circle  cx="3.6" fill="black" cy="46.8" stroke="black" stroke-width="1.944" id="connector21pad" r="1.908"/>
     <circle  cx="3.6" fill="black" cy="54" stroke="black" stroke-width="1.944" id="connector22pad" r="1.908"/>
     <circle  cx="3.6" fill="black" cy="61.2" stroke="black" stroke-width="1.944" id="connector23pad" r="1.908"/>
     <circle  cx="3.6" fill="black" cy="68.4" stroke="black" stroke-width="1.944" id="connector24pad" r="1.908"/>
     <circle  cx="3.6" fill="black" cy="75.6" stroke="black" stroke-width="1.944" id="connector25pad" r="1.908"/>
     <circle  cx="3.6" fill="black" cy="82.8" stroke="black" stroke-width="1.944" id="connector26pad" r="1.908"/>
     <circle  cx="3.6" fill="black" cy="90" stroke="black" stroke-width="1.944" id="connector27pad" r="1.908"/>
     <circle  cx="3.6" fill="black" cy="97.2" stroke="black" stroke-width="1.944" id="connector28pad" r="1.908"/>
     <circle  cx="3.6" fill="black" cy="104.4" stroke="black" stroke-width="1.944" id="connector29pad" r="1.908"/>
     <circle  cx="3.6" fill="black" cy="111.6" stroke="black" stroke-width="1.944" id="connector30pad" r="1.908"/>
     <circle  cx="46.8" fill="black" cy="10.8" stroke="black" stroke-width="1.944" id="connector31pad" r="1.908"/>
     <circle  cx="46.8" fill="black" cy="18" stroke="black" stroke-width="1.944" id="connector32pad" r="1.908"/>
     <circle  cx="46.8" fill="black" cy="25.2" stroke="black" stroke-width="1.944" id="connector33pad" r="1.908"/>
     <circle  cx="46.8" fill="black" cy="32.4" stroke="black" stroke-width="1.944" id="connector34pad" r="1.908"/>
     <circle  cx="46.8" fill="black" cy="39.6" stroke="black" stroke-width="1.944" id="connector35pad" r="1.908"/>
     <circle  cx="46.8" fill="black" cy="46.8" stroke="black" stroke-width="1.944" id="connector36pad" r="1.908"/>
     <circle  cx="46.8" fill="black" cy="54" stroke="black" stroke-width="1.944" id="connector37pad" r="1.908"/>
     <circle  cx="46.8" fill="black" cy="61.2" stroke="black" stroke-width="1.944" id="connector38pad" r="1.908"/>
     <circle  cx="46.8" fill="black" cy="68.4" stroke="black" stroke-width="1.944" id="connector39pad" r="1.908"/>
     <circle  cx="46.8" fill="black" cy="75.6" stroke="black" stroke-width="1.944" id="connector40pad" r="1.908"/>
     <circle  cx="46.8" fill="black" cy="82.8" stroke="black" stroke-width="1.944" id="connector41pad" r="1.908"/>
     <circle  cx="46.8" fill="black" cy="90" stroke="black" stroke-width="1.944" id="connector42pad" r="1.908"/>
     <circle  cx="46.8" fill="black" cy="97.2" stroke="black" stroke-width="1.944" id="connector43pad" r="1.908"/>
     <circle  cx="46.8" fill="black" cy="104.4" stroke="black" stroke-width="1.944" id="connector44pad" r="1.908"/>
     <circle  cx="46.8" fill="black" cy="111.6" stroke="black" stroke-width="1.944" id="connector45pad" r="1.908"/>
    </g>
   </g>
  </g>
  <g partID="856743380">
   <g transform="translate(214.975,96.3703)">
    <g transform="matrix(1,0,0,1,0,0)">
     <g  id="copper0">
      <rect  fill="black" y="3.33923" height="3.95999" stroke="black" stroke-width="2.16" id="_45344440" x="20.1351" width="3.96"/>
      <circle  cx="22.1151" fill="black" cy="5.31922" stroke="black" stroke-width="2.16" id="_45294224" r="1.98"/>
      <circle  cx="4.94505" fill="black" cy="8.75877" stroke="black" stroke-width="2.16" id="_45294120" r="1.98"/>
      <circle  cx="4.85832" fill="black" cy="44.9568" stroke="black" stroke-width="2.16" id="_45293768" r="1.98"/>
      <circle  cx="39.145" fill="black" cy="44.8978" stroke="black" stroke-width="2.16" id="_45291120" r="1.98"/>
      <circle  cx="39.1068" fill="black" cy="8.78457" stroke="black" stroke-width="2.16" id="_45267704" r="1.98"/>
      <rect  fill="black" y="42.8385" height="4" stroke="black" stroke-width="0.72" id="connector3" x="3.44528" width="4"/>
      <rect  fill="black" y="42.8385" height="4" stroke="black" stroke-width="0.72" id="connector4" x="36.9843" width="4"/>
      <rect  fill="black" y="6.86025" height="4" stroke="black" stroke-width="0.72" id="connector0" x="36.6794" width="4"/>
      <rect  fill="black" y="6.55535" height="4" stroke="black" stroke-width="0.72" id="connector1" x="2.83548" width="4"/>
      <rect  fill="black" y="3.50635" height="4" stroke="black" stroke-width="0.72" id="connector2" x="19.9099" width="4"/>
     </g>
    </g>
   </g>
  </g>
  <g partID="856598470">
   <g transform="translate(162.734,150.091)">
    <g transform="matrix(-1,0,0,-1,0,0)">
     <g  id="copper0">
      <rect  fill="black" y="3.33923" height="3.95999" stroke="black" stroke-width="2.16" id="_45344440" x="20.1351" width="3.96"/>
      <circle  cx="22.1151" fill="black" cy="5.31922" stroke="black" stroke-width="2.16" id="_45294224" r="1.98"/>
      <circle  cx="4.94505" fill="black" cy="8.75877" stroke="black" stroke-width="2.16" id="_45294120" r="1.98"/>
      <circle  cx="4.85832" fill="black" cy="44.9568" stroke="black" stroke-width="2.16" id="_45293768" r="1.98"/>
      <circle  cx="39.145" fill="black" cy="44.8978" stroke="black" stroke-width="2.16" id="_45291120" r="1.98"/>
      <circle  cx="39.1068" fill="black" cy="8.78457" stroke="black" stroke-width="2.16" id="_45267704" r="1.98"/>
      <rect  fill="black" y="42.8385" height="4" stroke="black" stroke-width="0.72" id="connector3" x="3.44528" width="4"/>
      <rect  fill="black" y="42.8385" height="4" stroke="black" stroke-width="0.72" id="connector4" x="36.9843" width="4"/>
      <rect  fill="black" y="6.86025" height="4" stroke="black" stroke-width="0.72" id="connector0" x="36.6794" width="4"/>
      <rect  fill="black" y="6.55535" height="4" stroke="black" stroke-width="0.72" id="connector1" x="2.83548" width="4"/>
      <rect  fill="black" y="3.50635" height="4" stroke="black" stroke-width="0.72" id="connector2" x="19.9099" width="4"/>
     </g>
    </g>
   </g>
  </g>
  <g partID="856743420">
   <g transform="translate(280.794,115.11)">
    <g transform="matrix(0,-1,1,0,0,0)">
     <g  id="copper0">
      <rect  fill="black" y="3.33923" height="3.95999" stroke="black" stroke-width="2.16" id="_45344440" x="20.1351" width="3.96"/>
      <circle  cx="22.1151" fill="black" cy="5.31922" stroke="black" stroke-width="2.16" id="_45294224" r="1.98"/>
      <circle  cx="4.94505" fill="black" cy="8.75877" stroke="black" stroke-width="2.16" id="_45294120" r="1.98"/>
      <circle  cx="4.85832" fill="black" cy="44.9568" stroke="black" stroke-width="2.16" id="_45293768" r="1.98"/>
      <circle  cx="39.145" fill="black" cy="44.8978" stroke="black" stroke-width="2.16" id="_45291120" r="1.98"/>
      <circle  cx="39.1068" fill="black" cy="8.78457" stroke="black" stroke-width="2.16" id="_45267704" r="1.98"/>
      <rect  fill="black" y="42.8385" height="4" stroke="black" stroke-width="0.72" id="connector3" x="3.44528" width="4"/>
      <rect  fill="black" y="42.8385" height="4" stroke="black" stroke-width="0.72" id="connector4" x="36.9843" width="4"/>
      <rect  fill="black" y="6.86025" height="4" stroke="black" stroke-width="0.72" id="connector0" x="36.6794" width="4"/>
      <rect  fill="black" y="6.55535" height="4" stroke="black" stroke-width="0.72" id="connector1" x="2.83548" width="4"/>
      <rect  fill="black" y="3.50635" height="4" stroke="black" stroke-width="0.72" id="connector2" x="19.9099" width="4"/>
     </g>
    </g>
   </g>
  </g>
  <g partID="856743410">
   <g transform="translate(280.794,237.51)">
    <g transform="matrix(0,-1,1,0,0,0)">
     <g  id="copper0">
      <rect  fill="black" y="3.33923" height="3.95999" stroke="black" stroke-width="2.16" id="_45344440" x="20.1351" width="3.96"/>
      <circle  cx="22.1151" fill="black" cy="5.31922" stroke="black" stroke-width="2.16" id="_45294224" r="1.98"/>
      <circle  cx="4.94505" fill="black" cy="8.75877" stroke="black" stroke-width="2.16" id="_45294120" r="1.98"/>
      <circle  cx="4.85832" fill="black" cy="44.9568" stroke="black" stroke-width="2.16" id="_45293768" r="1.98"/>
      <circle  cx="39.145" fill="black" cy="44.8978" stroke="black" stroke-width="2.16" id="_45291120" r="1.98"/>
      <circle  cx="39.1068" fill="black" cy="8.78457" stroke="black" stroke-width="2.16" id="_45267704" r="1.98"/>
      <rect  fill="black" y="42.8385" height="4" stroke="black" stroke-width="0.72" id="connector3" x="3.44528" width="4"/>
      <rect  fill="black" y="42.8385" height="4" stroke="black" stroke-width="0.72" id="connector4" x="36.9843" width="4"/>
      <rect  fill="black" y="6.86025" height="4" stroke="black" stroke-width="0.72" id="connector0" x="36.6794" width="4"/>
      <rect  fill="black" y="6.55535" height="4" stroke="black" stroke-width="0.72" id="connector1" x="2.83548" width="4"/>
      <rect  fill="black" y="3.50635" height="4" stroke="black" stroke-width="0.72" id="connector2" x="19.9099" width="4"/>
     </g>
    </g>
   </g>
  </g>
  <g partID="856743400">
   <g transform="translate(280.794,187.11)">
    <g transform="matrix(0,-1,1,0,0,0)">
     <g  id="copper0">
      <rect  fill="black" y="3.33923" height="3.95999" stroke="black" stroke-width="2.16" id="_45344440" x="20.1351" width="3.96"/>
      <circle  cx="22.1151" fill="black" cy="5.31922" stroke="black" stroke-width="2.16" id="_45294224" r="1.98"/>
      <circle  cx="4.94505" fill="black" cy="8.75877" stroke="black" stroke-width="2.16" id="_45294120" r="1.98"/>
      <circle  cx="4.85832" fill="black" cy="44.9568" stroke="black" stroke-width="2.16" id="_45293768" r="1.98"/>
      <circle  cx="39.145" fill="black" cy="44.8978" stroke="black" stroke-width="2.16" id="_45291120" r="1.98"/>
      <circle  cx="39.1068" fill="black" cy="8.78457" stroke="black" stroke-width="2.16" id="_45267704" r="1.98"/>
      <rect  fill="black" y="42.8385" height="4" stroke="black" stroke-width="0.72" id="connector3" x="3.44528" width="4"/>
      <rect  fill="black" y="42.8385" height="4" stroke="black" stroke-width="0.72" id="connector4" x="36.9843" width="4"/>
      <rect  fill="black" y="6.86025" height="4" stroke="black" stroke-width="0.72" id="connector0" x="36.6794" width="4"/>
      <rect  fill="black" y="6.55535" height="4" stroke="black" stroke-width="0.72" id="connector1" x="2.83548" width="4"/>
      <rect  fill="black" y="3.50635" height="4" stroke="black" stroke-width="0.72" id="connector2" x="19.9099" width="4"/>
     </g>
    </g>
   </g>
  </g>
  <g partID="856743390">
   <g transform="translate(280.794,64.7101)">
    <g transform="matrix(0,-1,1,0,0,0)">
     <g  id="copper0">
      <rect  fill="black" y="3.33923" height="3.95999" stroke="black" stroke-width="2.16" id="_45344440" x="20.1351" width="3.96"/>
      <circle  cx="22.1151" fill="black" cy="5.31922" stroke="black" stroke-width="2.16" id="_45294224" r="1.98"/>
      <circle  cx="4.94505" fill="black" cy="8.75877" stroke="black" stroke-width="2.16" id="_45294120" r="1.98"/>
      <circle  cx="4.85832" fill="black" cy="44.9568" stroke="black" stroke-width="2.16" id="_45293768" r="1.98"/>
      <circle  cx="39.145" fill="black" cy="44.8978" stroke="black" stroke-width="2.16" id="_45291120" r="1.98"/>
      <circle  cx="39.1068" fill="black" cy="8.78457" stroke="black" stroke-width="2.16" id="_45267704" r="1.98"/>
      <rect  fill="black" y="42.8385" height="4" stroke="black" stroke-width="0.72" id="connector3" x="3.44528" width="4"/>
      <rect  fill="black" y="42.8385" height="4" stroke="black" stroke-width="0.72" id="connector4" x="36.9843" width="4"/>
      <rect  fill="black" y="6.86025" height="4" stroke="black" stroke-width="0.72" id="connector0" x="36.6794" width="4"/>
      <rect  fill="black" y="6.55535" height="4" stroke="black" stroke-width="0.72" id="connector1" x="2.83548" width="4"/>
      <rect  fill="black" y="3.50635" height="4" stroke="black" stroke-width="0.72" id="connector2" x="19.9099" width="4"/>
     </g>
    </g>
   </g>
  </g>
  <g partID="856621030">
   <g transform="translate(96.914,145.751)">
    <g transform="matrix(0,1,-1,0,0,0)">
     <g  id="copper0">
      <rect  fill="black" y="3.33923" height="3.95999" stroke="black" stroke-width="2.16" id="_45344440" x="20.1351" width="3.96"/>
      <circle  cx="22.1151" fill="black" cy="5.31922" stroke="black" stroke-width="2.16" id="_45294224" r="1.98"/>
      <circle  cx="4.94505" fill="black" cy="8.75877" stroke="black" stroke-width="2.16" id="_45294120" r="1.98"/>
      <circle  cx="4.85832" fill="black" cy="44.9568" stroke="black" stroke-width="2.16" id="_45293768" r="1.98"/>
      <circle  cx="39.145" fill="black" cy="44.8978" stroke="black" stroke-width="2.16" id="_45291120" r="1.98"/>
      <circle  cx="39.1068" fill="black" cy="8.78457" stroke="black" stroke-width="2.16" id="_45267704" r="1.98"/>
      <rect  fill="black" y="42.8385" height="4" stroke="black" stroke-width="0.72" id="connector3" x="3.44528" width="4"/>
      <rect  fill="black" y="42.8385" height="4" stroke="black" stroke-width="0.72" id="connector4" x="36.9843" width="4"/>
      <rect  fill="black" y="6.86025" height="4" stroke="black" stroke-width="0.72" id="connector0" x="36.6794" width="4"/>
      <rect  fill="black" y="6.55535" height="4" stroke="black" stroke-width="0.72" id="connector1" x="2.83548" width="4"/>
      <rect  fill="black" y="3.50635" height="4" stroke="black" stroke-width="0.72" id="connector2" x="19.9099" width="4"/>
     </g>
    </g>
   </g>
  </g>
  <g partID="856621020">
   <g transform="translate(96.914,196.151)">
    <g transform="matrix(0,1,-1,0,0,0)">
     <g  id="copper0">
      <rect  fill="black" y="3.33923" height="3.95999" stroke="black" stroke-width="2.16" id="_45344440" x="20.1351" width="3.96"/>
      <circle  cx="22.1151" fill="black" cy="5.31922" stroke="black" stroke-width="2.16" id="_45294224" r="1.98"/>
      <circle  cx="4.94505" fill="black" cy="8.75877" stroke="black" stroke-width="2.16" id="_45294120" r="1.98"/>
      <circle  cx="4.85832" fill="black" cy="44.9568" stroke="black" stroke-width="2.16" id="_45293768" r="1.98"/>
      <circle  cx="39.145" fill="black" cy="44.8978" stroke="black" stroke-width="2.16" id="_45291120" r="1.98"/>
      <circle  cx="39.1068" fill="black" cy="8.78457" stroke="black" stroke-width="2.16" id="_45267704" r="1.98"/>
      <rect  fill="black" y="42.8385" height="4" stroke="black" stroke-width="0.72" id="connector3" x="3.44528" width="4"/>
      <rect  fill="black" y="42.8385" height="4" stroke="black" stroke-width="0.72" id="connector4" x="36.9843" width="4"/>
      <rect  fill="black" y="6.86025" height="4" stroke="black" stroke-width="0.72" id="connector0" x="36.6794" width="4"/>
      <rect  fill="black" y="6.55535" height="4" stroke="black" stroke-width="0.72" id="connector1" x="2.83548" width="4"/>
      <rect  fill="black" y="3.50635" height="4" stroke="black" stroke-width="0.72" id="connector2" x="19.9099" width="4"/>
     </g>
    </g>
   </g>
  </g>
  <g partID="856599910">
   <g transform="translate(96.914,23.3511)">
    <g transform="matrix(0,1,-1,0,0,0)">
     <g  id="copper0">
      <rect  fill="black" y="3.33923" height="3.95999" stroke="black" stroke-width="2.16" id="_45344440" x="20.1351" width="3.96"/>
      <circle  cx="22.1151" fill="black" cy="5.31922" stroke="black" stroke-width="2.16" id="_45294224" r="1.98"/>
      <circle  cx="4.94505" fill="black" cy="8.75877" stroke="black" stroke-width="2.16" id="_45294120" r="1.98"/>
      <circle  cx="4.85832" fill="black" cy="44.9568" stroke="black" stroke-width="2.16" id="_45293768" r="1.98"/>
      <circle  cx="39.145" fill="black" cy="44.8978" stroke="black" stroke-width="2.16" id="_45291120" r="1.98"/>
      <circle  cx="39.1068" fill="black" cy="8.78457" stroke="black" stroke-width="2.16" id="_45267704" r="1.98"/>
      <rect  fill="black" y="42.8385" height="4" stroke="black" stroke-width="0.72" id="connector3" x="3.44528" width="4"/>
      <rect  fill="black" y="42.8385" height="4" stroke="black" stroke-width="0.72" id="connector4" x="36.9843" width="4"/>
      <rect  fill="black" y="6.86025" height="4" stroke="black" stroke-width="0.72" id="connector0" x="36.6794" width="4"/>
      <rect  fill="black" y="6.55535" height="4" stroke="black" stroke-width="0.72" id="connector1" x="2.83548" width="4"/>
      <rect  fill="black" y="3.50635" height="4" stroke="black" stroke-width="0.72" id="connector2" x="19.9099" width="4"/>
     </g>
    </g>
   </g>
  </g>
  <g partID="856598480">
   <g transform="translate(96.914,73.7512)">
    <g transform="matrix(0,1,-1,0,0,0)">
     <g  id="copper0">
      <rect  fill="black" y="3.33923" height="3.95999" stroke="black" stroke-width="2.16" id="_45344440" x="20.1351" width="3.96"/>
      <circle  cx="22.1151" fill="black" cy="5.31922" stroke="black" stroke-width="2.16" id="_45294224" r="1.98"/>
      <circle  cx="4.94505" fill="black" cy="8.75877" stroke="black" stroke-width="2.16" id="_45294120" r="1.98"/>
      <circle  cx="4.85832" fill="black" cy="44.9568" stroke="black" stroke-width="2.16" id="_45293768" r="1.98"/>
      <circle  cx="39.145" fill="black" cy="44.8978" stroke="black" stroke-width="2.16" id="_45291120" r="1.98"/>
      <circle  cx="39.1068" fill="black" cy="8.78457" stroke="black" stroke-width="2.16" id="_45267704" r="1.98"/>
      <rect  fill="black" y="42.8385" height="4" stroke="black" stroke-width="0.72" id="connector3" x="3.44528" width="4"/>
      <rect  fill="black" y="42.8385" height="4" stroke="black" stroke-width="0.72" id="connector4" x="36.9843" width="4"/>
      <rect  fill="black" y="6.86025" height="4" stroke="black" stroke-width="0.72" id="connector0" x="36.6794" width="4"/>
      <rect  fill="black" y="6.55535" height="4" stroke="black" stroke-width="0.72" id="connector1" x="2.83548" width="4"/>
      <rect  fill="black" y="3.50635" height="4" stroke="black" stroke-width="0.72" id="connector2" x="19.9099" width="4"/>
     </g>
    </g>
   </g>
  </g>
  <g partID="856743460">
   <g transform="translate(271.654,230.655)">
    <g transform="matrix(0,-1,1,0,0,0)">
     <g  id="copper0">
      <rect  fill="black" height="4.464" stroke="black" stroke-width="2.16" y="1.368" x="0.72" width="4.464"/>
      <circle  cx="3.024" cy="3.6" fill="black" stroke="black" stroke-width="2.16" id="connector0pin" r="2.232"/>
      <circle  cx="24.48" cy="3.6" fill="black" stroke="black" stroke-width="2.16" id="connector1pin" r="2.232"/>
     </g>
    </g>
   </g>
  </g>
  <g partID="856743450">
   <g transform="translate(278.854,30.2065)">
    <g transform="matrix(0,1,-1,0,0,0)">
     <g  id="copper0">
      <rect  fill="black" height="4.464" stroke="black" stroke-width="2.16" y="1.368" x="0.72" width="4.464"/>
      <circle  cx="3.024" cy="3.6" fill="black" stroke="black" stroke-width="2.16" id="connector0pin" r="2.232"/>
      <circle  cx="24.48" cy="3.6" fill="black" stroke="black" stroke-width="2.16" id="connector1pin" r="2.232"/>
     </g>
    </g>
   </g>
  </g>
  <g partID="856743440">
   <g transform="translate(278.854,159.807)">
    <g transform="matrix(0,1,-1,0,0,0)">
     <g  id="copper0">
      <rect  fill="black" height="4.464" stroke="black" stroke-width="2.16" y="1.368" x="0.72" width="4.464"/>
      <circle  cx="3.024" cy="3.6" fill="black" stroke="black" stroke-width="2.16" id="connector0pin" r="2.232"/>
      <circle  cx="24.48" cy="3.6" fill="black" stroke="black" stroke-width="2.16" id="connector1pin" r="2.232"/>
     </g>
    </g>
   </g>
  </g>
  <g partID="856743430">
   <g transform="translate(271.654,93.8545)">
    <g transform="matrix(0,-1,1,0,0,0)">
     <g  id="copper0">
      <rect  fill="black" height="4.464" stroke="black" stroke-width="2.16" y="1.368" x="0.72" width="4.464"/>
      <circle  cx="3.024" cy="3.6" fill="black" stroke="black" stroke-width="2.16" id="connector0pin" r="2.232"/>
      <circle  cx="24.48" cy="3.6" fill="black" stroke="black" stroke-width="2.16" id="connector1pin" r="2.232"/>
     </g>
    </g>
   </g>
  </g>
  <g partID="856621050">
   <g transform="translate(98.854,230.655)">
    <g transform="matrix(0,-1,1,0,0,0)">
     <g  id="copper0">
      <rect  fill="black" height="4.464" stroke="black" stroke-width="2.16" y="1.368" x="0.72" width="4.464"/>
      <circle  cx="3.024" cy="3.6" fill="black" stroke="black" stroke-width="2.16" id="connector0pin" r="2.232"/>
      <circle  cx="24.48" cy="3.6" fill="black" stroke="black" stroke-width="2.16" id="connector1pin" r="2.232"/>
     </g>
    </g>
   </g>
  </g>
  <g partID="856621040">
   <g transform="translate(106.054,152.607)">
    <g transform="matrix(0,1,-1,0,0,0)">
     <g  id="copper0">
      <rect  fill="black" height="4.464" stroke="black" stroke-width="2.16" y="1.368" x="0.72" width="4.464"/>
      <circle  cx="3.024" cy="3.6" fill="black" stroke="black" stroke-width="2.16" id="connector0pin" r="2.232"/>
      <circle  cx="24.48" cy="3.6" fill="black" stroke="black" stroke-width="2.16" id="connector1pin" r="2.232"/>
     </g>
    </g>
   </g>
  </g>
  <g partID="856600540">
   <g transform="translate(106.054,30.2065)">
    <g transform="matrix(0,1,-1,0,0,0)">
     <g  id="copper0">
      <rect  fill="black" height="4.464" stroke="black" stroke-width="2.16" y="1.368" x="0.72" width="4.464"/>
      <circle  cx="3.024" cy="3.6" fill="black" stroke="black" stroke-width="2.16" id="connector0pin" r="2.232"/>
      <circle  cx="24.48" cy="3.6" fill="black" stroke="black" stroke-width="2.16" id="connector1pin" r="2.232"/>
     </g>
    </g>
   </g>
  </g>
  <g partID="856882200">
   <g transform="translate(217.68,80.0305)">
    <g  id="copper0">
     <rect  fill="black" height="4.464" stroke="black" stroke-width="2.16" y="1.368" x="0.72" width="4.464"/>
     <circle  cx="3.024" cy="3.6" fill="black" stroke="black" stroke-width="2.16" id="connector0pin" r="2.232"/>
     <circle  cx="24.48" cy="3.6" fill="black" stroke="black" stroke-width="2.16" id="connector1pin" r="2.232"/>
    </g>
   </g>
  </g>
  <g partID="856881800">
   <g transform="translate(170.278,166.431)">
    <g transform="matrix(-1,0,0,-1,0,0)">
     <g  id="copper0">
      <rect  fill="black" height="4.464" stroke="black" stroke-width="2.16" y="1.368" x="0.72" width="4.464"/>
      <circle  cx="3.024" cy="3.6" fill="black" stroke="black" stroke-width="2.16" id="connector0pin" r="2.232"/>
      <circle  cx="24.48" cy="3.6" fill="black" stroke="black" stroke-width="2.16" id="connector1pin" r="2.232"/>
     </g>
    </g>
   </g>
  </g>
  <g partID="856598490">
   <g transform="translate(98.854,108.255)">
    <g transform="matrix(0,-1,1,0,0,0)">
     <g  id="copper0">
      <rect  fill="black" height="4.464" stroke="black" stroke-width="2.16" y="1.368" x="0.72" width="4.464"/>
      <circle  cx="3.024" cy="3.6" fill="black" stroke="black" stroke-width="2.16" id="connector0pin" r="2.232"/>
      <circle  cx="24.48" cy="3.6" fill="black" stroke="black" stroke-width="2.16" id="connector1pin" r="2.232"/>
     </g>
    </g>
   </g>
  </g>
  <g partID="856743470">
   <g transform="translate(261.339,210.567)">
    <g transform="matrix(0,1,-1,0,0,0)">
     <g  id="copper0">
      <circle  cx="17.064" cy="7.68558" fill="black" stroke="black" stroke-width="2.232" id="connector2pad" connectorname="3" r="1.908"/>
      <circle  cx="9.864" cy="7.68558" fill="black" stroke="black" stroke-width="2.232" id="connector1pad" connectorname="2" r="1.908"/>
      <circle  cx="2.664" cy="7.68558" fill="black" stroke="black" stroke-width="2.232" id="connector0pad" connectorname="1" r="1.908"/>
     </g>
    </g>
   </g>
  </g>
  <g partID="856743480">
   <g transform="translate(262.704,66.5665)">
    <g transform="matrix(0,1,-1,0,0,0)">
     <g  id="copper0">
      <circle  cx="17.064" cy="7.68558" fill="black" stroke="black" stroke-width="2.232" id="connector2pad" connectorname="3" r="1.908"/>
      <circle  cx="9.864" cy="7.68558" fill="black" stroke="black" stroke-width="2.232" id="connector1pad" connectorname="2" r="1.908"/>
      <circle  cx="2.664" cy="7.68558" fill="black" stroke="black" stroke-width="2.232" id="connector0pad" connectorname="1" r="1.908"/>
     </g>
    </g>
   </g>
  </g>
  <g partID="856621060">
   <g transform="translate(109.169,194.295)">
    <g transform="matrix(0,-1,1,0,0,0)">
     <g  id="copper0">
      <circle  cx="17.064" cy="7.68558" fill="black" stroke="black" stroke-width="2.232" id="connector2pad" connectorname="3" r="1.908"/>
      <circle  cx="9.864" cy="7.68558" fill="black" stroke="black" stroke-width="2.232" id="connector1pad" connectorname="2" r="1.908"/>
      <circle  cx="2.664" cy="7.68558" fill="black" stroke="black" stroke-width="2.232" id="connector0pad" connectorname="1" r="1.908"/>
     </g>
    </g>
   </g>
  </g>
  <g partID="856598500">
   <g transform="translate(116.369,43.0945)">
    <g transform="matrix(0,-1,1,0,0,0)">
     <g  id="copper0">
      <circle  cx="17.064" cy="7.68558" fill="black" stroke="black" stroke-width="2.232" id="connector2pad" connectorname="3" r="1.908"/>
      <circle  cx="9.864" cy="7.68558" fill="black" stroke="black" stroke-width="2.232" id="connector1pad" connectorname="2" r="1.908"/>
      <circle  cx="2.664" cy="7.68558" fill="black" stroke="black" stroke-width="2.232" id="connector0pad" connectorname="1" r="1.908"/>
     </g>
    </g>
   </g>
  </g>
  <g partID="856743500">
   <g transform="translate(271.15,152.931)">
    <g transform="matrix(0,1,-1,0,0,0)">
     <g  id="copper0">
      <g  id="copper1">
       <!-- <rect width="55" x="10" y="15.5" fill="none" height="55" stroke="rgb(255, 191, 0)" stroke-width="20" />  -->
       <circle  cx="2.7" fill="black" cy="3.096" stroke="black" stroke-width="2.16" id="connector0pin" r="1.98"/>
       <circle  cx="31.5" fill="black" cy="3.096" stroke="black" stroke-width="2.16" id="connector1pin" r="1.98"/>
      </g>
     </g>
    </g>
   </g>
  </g>
  <g partID="856743490">
   <g transform="translate(271.15,30.5305)">
    <g transform="matrix(0,1,-1,0,0,0)">
     <g  id="copper0">
      <g  id="copper1">
       <!-- <rect width="55" x="10" y="15.5" fill="none" height="55" stroke="rgb(255, 191, 0)" stroke-width="20" />  -->
       <circle  cx="2.7" fill="black" cy="3.096" stroke="black" stroke-width="2.16" id="connector0pin" r="1.98"/>
       <circle  cx="31.5" fill="black" cy="3.096" stroke="black" stroke-width="2.16" id="connector1pin" r="1.98"/>
      </g>
     </g>
    </g>
   </g>
  </g>
  <g partID="856621070">
   <g transform="translate(106.558,230.331)">
    <g transform="matrix(0,-1,1,0,0,0)">
     <g  id="copper0">
      <g  id="copper1">
       <!-- <rect width="55" x="10" y="15.5" fill="none" height="55" stroke="rgb(255, 191, 0)" stroke-width="20" />  -->
       <circle  cx="2.7" fill="black" cy="3.096" stroke="black" stroke-width="2.16" id="connector0pin" r="1.98"/>
       <circle  cx="31.5" fill="black" cy="3.096" stroke="black" stroke-width="2.16" id="connector1pin" r="1.98"/>
      </g>
     </g>
    </g>
   </g>
  </g>
  <g partID="856598510">
   <g transform="translate(106.558,107.931)">
    <g transform="matrix(0,-1,1,0,0,0)">
     <g  id="copper0">
      <g  id="copper1">
       <!-- <rect width="55" x="10" y="15.5" fill="none" height="55" stroke="rgb(255, 191, 0)" stroke-width="20" />  -->
       <circle  cx="2.7" fill="black" cy="3.096" stroke="black" stroke-width="2.16" id="connector0pin" r="1.98"/>
       <circle  cx="31.5" fill="black" cy="3.096" stroke="black" stroke-width="2.16" id="connector1pin" r="1.98"/>
      </g>
     </g>
    </g>
   </g>
  </g>
  <g partID="856743520">
   <g transform="translate(271.15,88.1305)">
    <g transform="matrix(0,1,-1,0,0,0)">
     <g  id="copper0">
      <g  id="copper1">
       <!-- <rect width="55" x="10" y="15.5" fill="none" height="55" stroke="rgb(255, 191, 0)" stroke-width="20" />  -->
       <circle  cx="2.7" fill="black" cy="3.096" stroke="black" stroke-width="2.16" id="connector0pin" r="1.98"/>
       <circle  cx="31.5" fill="black" cy="3.096" stroke="black" stroke-width="2.16" id="connector1pin" r="1.98"/>
      </g>
     </g>
    </g>
   </g>
  </g>
  <g partID="856743510">
   <g transform="translate(264.958,237.531)">
    <g transform="matrix(0,-1,1,0,0,0)">
     <g  id="copper0">
      <g  id="copper1">
       <!-- <rect width="55" x="10" y="15.5" fill="none" height="55" stroke="rgb(255, 191, 0)" stroke-width="20" />  -->
       <circle  cx="2.7" fill="black" cy="3.096" stroke="black" stroke-width="2.16" id="connector0pin" r="1.98"/>
       <circle  cx="31.5" fill="black" cy="3.096" stroke="black" stroke-width="2.16" id="connector1pin" r="1.98"/>
      </g>
     </g>
    </g>
   </g>
  </g>
  <g partID="856621080">
   <g transform="translate(109.26,172.731)">
    <g transform="matrix(0,-1,1,0,0,0)">
     <g  id="copper0">
      <g  id="copper1">
       <!-- <rect width="55" x="10" y="15.5" fill="none" height="55" stroke="rgb(255, 191, 0)" stroke-width="20" />  -->
       <circle  cx="2.7" fill="black" cy="3.096" stroke="black" stroke-width="2.16" id="connector0pin" r="1.98"/>
       <circle  cx="31.5" fill="black" cy="3.096" stroke="black" stroke-width="2.16" id="connector1pin" r="1.98"/>
      </g>
     </g>
    </g>
   </g>
  </g>
  <g partID="856598520">
   <g transform="translate(112.75,23.3305)">
    <g transform="matrix(0,1,-1,0,0,0)">
     <g  id="copper0">
      <g  id="copper1">
       <!-- <rect width="55" x="10" y="15.5" fill="none" height="55" stroke="rgb(255, 191, 0)" stroke-width="20" />  -->
       <circle  cx="2.7" fill="black" cy="3.096" stroke="black" stroke-width="2.16" id="connector0pin" r="1.98"/>
       <circle  cx="31.5" fill="black" cy="3.096" stroke="black" stroke-width="2.16" id="connector1pin" r="1.98"/>
      </g>
     </g>
    </g>
   </g>
  </g>
  <g partID="856743550">
   <g transform="translate(334.199,175.431)">
    <g id="copper0">
     <rect fill="black" height="4.32" y="6.84" stroke="black" stroke-width="2.16" id="square" x="12.24" width="4.32"/>
     <circle cx="14.4" cy="9" fill="black" stroke="black" stroke-width="2.16" id="connector0pin" r="2.16"/>
     <circle cx="14.4" cy="23.4" fill="black" stroke="black" stroke-width="2.16" id="connector1pin" r="2.16"/>
    </g>
   </g>
  </g>
  <g partID="856743540">
   <g transform="translate(366.104,205.657)">
    <g transform="matrix(0,1,-1,0,0,0)">
     <g id="copper0">
      <rect fill="black" height="4.32" y="6.84" stroke="black" stroke-width="2.16" id="square" x="12.24" width="4.32"/>
      <circle cx="14.4" cy="9" fill="black" stroke="black" stroke-width="2.16" id="connector0pin" r="2.16"/>
      <circle cx="14.4" cy="23.4" fill="black" stroke="black" stroke-width="2.16" id="connector1pin" r="2.16"/>
     </g>
    </g>
   </g>
  </g>
  <g partID="856743530">
   <g transform="translate(334.347,60.2305)">
    <g id="copper0">
     <rect fill="black" height="4.32" y="6.84" stroke="black" stroke-width="2.16" id="square" x="12.24" width="4.32"/>
     <circle cx="14.4" cy="9" fill="black" stroke="black" stroke-width="2.16" id="connector0pin" r="2.16"/>
     <circle cx="14.4" cy="23.4" fill="black" stroke="black" stroke-width="2.16" id="connector1pin" r="2.16"/>
    </g>
   </g>
  </g>
  <g partID="856627850">
   <g transform="translate(215.854,47.6305)">
    <g transform="matrix(0,-1,1,0,0,0)">
     <g id="copper0">
      <rect fill="black" height="4.32" y="6.84" stroke="black" stroke-width="2.16" id="square" x="12.24" width="4.32"/>
      <circle cx="14.4" cy="9" fill="black" stroke="black" stroke-width="2.16" id="connector0pin" r="2.16"/>
      <circle cx="14.4" cy="23.4" fill="black" stroke="black" stroke-width="2.16" id="connector1pin" r="2.16"/>
     </g>
    </g>
   </g>
  </g>
  <g partID="856621090">
   <g transform="translate(44.2076,200.631)">
    <g transform="matrix(-1,0,0,-1,0,0)">
     <g id="copper0">
      <rect fill="black" height="4.32" y="6.84" stroke="black" stroke-width="2.16" id="square" x="12.24" width="4.32"/>
      <circle cx="14.4" cy="9" fill="black" stroke="black" stroke-width="2.16" id="connector0pin" r="2.16"/>
      <circle cx="14.4" cy="23.4" fill="black" stroke="black" stroke-width="2.16" id="connector1pin" r="2.16"/>
     </g>
    </g>
   </g>
  </g>
  <g partID="856608310">
   <g transform="translate(44.2076,85.4305)">
    <g transform="matrix(-1,0,0,-1,0,0)">
     <g id="copper0">
      <rect fill="black" height="4.32" y="6.84" stroke="black" stroke-width="2.16" id="square" x="12.24" width="4.32"/>
      <circle cx="14.4" cy="9" fill="black" stroke="black" stroke-width="2.16" id="connector0pin" r="2.16"/>
      <circle cx="14.4" cy="23.4" fill="black" stroke="black" stroke-width="2.16" id="connector1pin" r="2.16"/>
     </g>
    </g>
   </g>
  </g>
  <g partID="856598530">
   <g transform="translate(11.2444,55.2045)">
    <g transform="matrix(0,-1,1,0,0,0)">
     <g id="copper0">
      <rect fill="black" height="4.32" y="6.84" stroke="black" stroke-width="2.16" id="square" x="12.24" width="4.32"/>
      <circle cx="14.4" cy="9" fill="black" stroke="black" stroke-width="2.16" id="connector0pin" r="2.16"/>
      <circle cx="14.4" cy="23.4" fill="black" stroke="black" stroke-width="2.16" id="connector1pin" r="2.16"/>
     </g>
    </g>
   </g>
  </g>
  <g partID="856660170">
   <g transform="translate(13.0564,95.1102)">
    <g  id="copper0">
     <circle  cx="3.01733" fill="black" cy="3.01733" stroke-width="1.57039" stroke="black" id="connector0pin" r="0.992124"/>
    </g>
   </g>
  </g>
  <g partID="856871600">
   <g transform="translate(280.328,148.317)">
    <g transform="matrix(0,-1,1,0,0,0)">
     <g id="copper0" flipped="1">
      <g transform="matrix(-1, 0, 0, 1, 9.35433, 0)">
       <g>
        <g>
         <g>
          <rect fill="black" height="3.11811" y="0.566929" stroke="black" stroke-width="0.72" id="connector0pad" x="0.566929" fill-opacity="1" width="3.40157"/>
          <rect fill="black" height="3.11811" y="0.566929" stroke="black" stroke-width="0.72" id="connector1pad" x="5.38583" fill-opacity="1" width="3.40157"/>
         </g>
        </g>
       </g>
      </g>
     </g>
    </g>
   </g>
  </g>
  <g partID="856871580">
   <g transform="translate(111.78,112.544)">
    <g transform="matrix(0,1,-1,0,0,0)">
     <g id="copper0" flipped="1">
      <g transform="matrix(-1, 0, 0, 1, 9.35433, 0)">
       <g>
        <g>
         <g>
          <rect fill="black" height="3.11811" y="0.566929" stroke="black" stroke-width="0.72" id="connector0pad" x="0.566929" fill-opacity="1" width="3.40157"/>
          <rect fill="black" height="3.11811" y="0.566929" stroke="black" stroke-width="0.72" id="connector1pad" x="5.38583" fill-opacity="1" width="3.40157"/>
         </g>
        </g>
       </g>
      </g>
     </g>
    </g>
   </g>
  </g>
  <g partID="856871560">
   <g transform="translate(267.94,28.1565)">
    <g transform="matrix(-1,0,0,-1,0,0)">
     <g id="copper0" flipped="1">
      <g transform="matrix(-1, 0, 0, 1, 9.35433, 0)">
       <g>
        <g>
         <g>
          <rect fill="black" height="3.11811" y="0.566929" stroke="black" stroke-width="0.72" id="connector0pad" x="0.566929" fill-opacity="1" width="3.40157"/>
          <rect fill="black" height="3.11811" y="0.566929" stroke="black" stroke-width="0.72" id="connector1pad" x="5.38583" fill-opacity="1" width="3.40157"/>
         </g>
        </g>
       </g>
      </g>
     </g>
    </g>
   </g>
  </g>
  <g partID="856871540">
   <g transform="translate(111.78,234.944)">
    <g transform="matrix(0,1,-1,0,0,0)">
     <g id="copper0" flipped="1">
      <g transform="matrix(-1, 0, 0, 1, 9.35433, 0)">
       <g>
        <g>
         <g>
          <rect fill="black" height="3.11811" y="0.566929" stroke="black" stroke-width="0.72" id="connector0pad" x="0.566929" fill-opacity="1" width="3.40157"/>
          <rect fill="black" height="3.11811" y="0.566929" stroke="black" stroke-width="0.72" id="connector1pad" x="5.38583" fill-opacity="1" width="3.40157"/>
         </g>
        </g>
       </g>
      </g>
     </g>
    </g>
   </g>
  </g>
  <g partID="856835100">
   <g transform="translate(4.10203,122.079)">
    <g  id="copper0">
     <circle  cx="19.152" fill="black" cy="4.752" stroke="black" stroke-width="2.16" id="connector0pad" r="1.98"/>
     <circle  cx="4.752" fill="black" cy="26.352" stroke="black" stroke-width="2.16" id="connector1pad" r="1.98"/>
    </g>
   </g>
  </g>
  <g partID="856823290">
   <g transform="translate(246.511,160.286)">
    <g  id="copper0">
     <circle  cx="4.752" fill="black" cy="19.152" stroke="black" stroke-width="2.16" id="connector0pad" r="1.98"/>
     <circle  cx="4.752" fill="black" cy="4.752" stroke="black" stroke-width="2.16" id="connector1pad" r="1.98"/>
    </g>
   </g>
  </g>
  <g partID="856821860">
   <g transform="translate(270.502,100.479)">
    <g  id="copper0">
     <circle  cx="4.752" fill="black" cy="19.152" stroke="black" stroke-width="2.16" id="connector0pad" r="1.98"/>
     <circle  cx="4.752" fill="black" cy="4.752" stroke="black" stroke-width="2.16" id="connector1pad" r="1.98"/>
    </g>
   </g>
  </g>
  <g partID="856796390">
   <g transform="translate(198.502,136.479)">
    <g  id="copper0">
     <circle  cx="4.752" fill="black" cy="26.352" stroke="black" stroke-width="2.16" id="connector0pad" r="1.98"/>
     <circle  cx="11.952" fill="black" cy="4.752" stroke="black" stroke-width="2.16" id="connector1pad" r="1.98"/>
    </g>
   </g>
  </g>
  <g partID="856790990">
   <g transform="translate(248.902,35.6785)">
    <g  id="copper0">
     <circle  cx="4.752" fill="black" cy="19.152" stroke="black" stroke-width="2.16" id="connector0pad" r="1.98"/>
     <circle  cx="4.752" fill="black" cy="4.752" stroke="black" stroke-width="2.16" id="connector1pad" r="1.98"/>
    </g>
   </g>
  </g>
 </g>
</svg>
